<svg version="1" xmlns="http://www.w3.org/2000/svg" width="51.773" height="43" viewBox="0 0 51.773 43"><path fill="#7A7A79" d="M44.85 22.047L29.343 31.68c-.926.575-2.11.892-3.338.892-1.227 0-2.413-.317-3.338-.892L7.554 22.292s-1.364-.847-1.364 1.07v9.375C6.19 37.677 15.06 43 26.005 43 36.95 43 45.82 37.676 45.82 32.738v-9.903c0-1.54-.97-.788-.97-.788zm-16.733 7.08L51.14 14.824c1.16-.72 1.16-1.902 0-2.623L28.117.543c-1.16-.722-3.062-.722-4.223 0L.87 12.2c-1.16.72-1.16 1.9 0 2.622l23.024 14.3c1.16.723 3.06.723 4.223.002zm22.316 7.24c-.08-.048-.246-.142-.246-.345V20.228s.01-.748-.427-.5c-.352.197-1.213.684-1.517.95-.35.31-.27 1.002-.27 1.002v14.342c0 .204-.174.3-.256.35a2.73 2.73 0 0 0-1.33 2.35c0 1.508 1.205 2.73 2.693 2.73s2.694-1.222 2.694-2.73c0-1.005-.54-1.883-1.34-2.356z"/></svg>